<svg id="visual" viewBox="0 0 960 540" width="960" height="540" xmlns="http://www.w3.org/2000/svg" xmlns:xlink="http://www.w3.org/1999/xlink" version="1.1"><path d="M0 390L22.8 397.3C45.7 404.7 91.3 419.3 137 411C182.7 402.7 228.3 371.3 274 359C319.7 346.7 365.3 353.3 411.2 365.2C457 377 503 394 548.8 398.5C594.7 403 640.3 395 686 382.8C731.7 370.7 777.3 354.3 823 350.3C868.7 346.3 914.3 354.7 937.2 358.8L960 363L960 541L937.2 541C914.3 541 868.7 541 823 541C777.3 541 731.7 541 686 541C640.3 541 594.7 541 548.8 541C503 541 457 541 411.2 541C365.3 541 319.7 541 274 541C228.3 541 182.7 541 137 541C91.3 541 45.7 541 22.8 541L0 541Z" fill="#fac4b9" stroke-linecap="round" stroke-linejoin="miter"></path></svg>